# xmcd CD database file
#
# Track frame offsets:
#	150
#	14052
#	28339
#	40079
#	53327
#	66072
#	77869
#	90752
#	105107
#	119794
#	131187
#	143232
#
# Disc length: 2112 seconds
#
# Revision: 4
# Processed by: cddbd v1.5.2PL0 Copyright (c) Steve Scherf et al.
# Submitted via: CDex 1.51
#
DISCID=9c083e0c
DTITLE=Muddy Waters - More Real Folk Blues
DYEAR=1900
DGENRE=Blues
TTITLE0=Sad Letter Blues
TTITLE1=You're Gonna Need My Help I Said
TTITLE2=Sittin' Here And Drinkin' (a.k.a. Whiskey Blues)
TTITLE3=Down South Blues
TTITLE4=Train Fare Home
TTITLE5=Kind Hearted Woman
TTITLE6=Appealing Blues (a.k.a. Hello Little Girl)
TTITLE7=Early Morning Blues
TTITLE8=Too Young To Know
TTITLE9=She's Alright
TTITLE10=My Life Is Ruined (a.k.a. Landlady)
TTITLE11=Honey Bee
EXTD=
EXTT0=
EXTT1=
EXTT2=
EXTT3=
EXTT4=
EXTT5=
EXTT6=
EXTT7=
EXTT8=
EXTT9=
EXTT10=
EXTT11=
PLAYORDER=
